<svg width="28" height="28" viewBox="0 0 28 28" fill="none" xmlns="http://www.w3.org/2000/svg">
<path d="M4.6665 22.1667V11.6667C4.6665 11.2973 4.74934 10.9473 4.915 10.6167C5.08067 10.2862 5.30895 10.0139 5.59984 9.80004L12.5998 4.55004C13.0082 4.23893 13.4748 4.08337 13.9998 4.08337C14.5248 4.08337 14.9915 4.23893 15.3998 4.55004L22.3998 9.80004C22.6915 10.0139 22.9202 10.2862 23.0858 10.6167C23.2515 10.9473 23.334 11.2973 23.3332 11.6667V22.1667C23.3332 22.8084 23.1045 23.3579 22.6472 23.8152C22.1898 24.2725 21.6407 24.5008 20.9998 24.5H17.4998C17.1693 24.5 16.8924 24.388 16.6692 24.164C16.4459 23.94 16.3339 23.6632 16.3332 23.3334V17.5C16.3332 17.1695 16.2212 16.8926 15.9972 16.6694C15.7732 16.4462 15.4963 16.3342 15.1665 16.3334H12.8332C12.5026 16.3334 12.2257 16.4454 12.0025 16.6694C11.7793 16.8934 11.6673 17.1703 11.6665 17.5V23.3334C11.6665 23.6639 11.5545 23.9412 11.3305 24.1652C11.1065 24.3892 10.8296 24.5008 10.4998 24.5H6.99984C6.35817 24.5 5.80906 24.2718 5.3525 23.8152C4.89595 23.3587 4.66728 22.8092 4.6665 22.1667Z" fill="#F35151"/>
</svg>
