<svg width="28" height="28" viewBox="0 0 28 28" fill="none" xmlns="http://www.w3.org/2000/svg">
<path d="M13.9998 15.1667C17.2215 15.1667 19.8332 12.555 19.8332 9.33333C19.8332 6.11167 17.2215 3.5 13.9998 3.5C10.7782 3.5 8.1665 6.11167 8.1665 9.33333C8.1665 12.555 10.7782 15.1667 13.9998 15.1667Z" fill="#F35151" stroke="#F35151" stroke-width="2.33333" stroke-linecap="round" stroke-linejoin="round"/>
<path d="M23.3332 24.5C23.3332 22.0246 22.3498 19.6506 20.5995 17.9003C18.8492 16.15 16.4752 15.1666 13.9998 15.1666C11.5245 15.1666 9.15051 16.15 7.40017 17.9003C5.64983 19.6506 4.6665 22.0246 4.6665 24.5" stroke="#F35151" stroke-width="2.33333" stroke-linecap="round" stroke-linejoin="round"/>
<path d="M13.9998 15.1666C11.5245 15.1666 9.15051 16.15 7.40017 17.9003C5.64983 19.6506 4.6665 22.0246 4.6665 24.5H23.3332C23.3332 22.0246 22.3498 19.6506 20.5995 17.9003C18.8492 16.15 16.4752 15.1666 13.9998 15.1666Z" fill="#F35151" stroke="#F35151" stroke-width="2.33333" stroke-linecap="round" stroke-linejoin="round"/>
</svg>
