<svg width="16" height="16" viewBox="0 0 16 16" fill="none" xmlns="http://www.w3.org/2000/svg">
<path d="M8.66671 3.99998C8.66671 3.82317 8.59647 3.6536 8.47144 3.52858C8.34642 3.40355 8.17685 3.33331 8.00004 3.33331C7.82323 3.33331 7.65366 3.40355 7.52864 3.52858C7.40361 3.6536 7.33337 3.82317 7.33337 3.99998V7.33331H4.00004C3.82323 7.33331 3.65366 7.40355 3.52864 7.52857C3.40361 7.6536 3.33337 7.82317 3.33337 7.99998C3.33337 8.17679 3.40361 8.34636 3.52864 8.47138C3.65366 8.59641 3.82323 8.66665 4.00004 8.66665H7.33337V12C7.33337 12.1768 7.40361 12.3464 7.52864 12.4714C7.65366 12.5964 7.82323 12.6666 8.00004 12.6666C8.17685 12.6666 8.34642 12.5964 8.47144 12.4714C8.59647 12.3464 8.66671 12.1768 8.66671 12V8.66665H12C12.1769 8.66665 12.3464 8.59641 12.4714 8.47138C12.5965 8.34636 12.6667 8.17679 12.6667 7.99998C12.6667 7.82317 12.5965 7.6536 12.4714 7.52857C12.3464 7.40355 12.1769 7.33331 12 7.33331H8.66671V3.99998Z" fill="#545052"/>
</svg>
