<svg width="23" height="23" viewBox="0 0 23 23" fill="none" xmlns="http://www.w3.org/2000/svg">
<path fill-rule="evenodd" clip-rule="evenodd" d="M18.5094 0.560305L22.4419 4.49279C22.6715 4.72226 22.8386 5.00661 22.9274 5.31884C23.0162 5.63107 23.0237 5.96081 22.9491 6.27674C22.8746 6.59267 22.7205 6.88431 22.5016 7.12394C22.2826 7.36357 22.006 7.54324 21.6981 7.64589L18.4612 8.72485C18.8033 9.82899 18.8374 11.0056 18.5598 12.1277C18.2822 13.2498 17.7034 14.2748 16.8859 15.092L15.0898 16.8869C14.2727 17.7046 13.2478 18.2836 12.1257 18.5614C11.0036 18.8393 9.82688 18.8054 8.72263 18.4634L7.64367 21.7003C7.54102 22.0082 7.36135 22.2848 7.12172 22.5038C6.88208 22.7228 6.59045 22.8768 6.27452 22.9514C5.95859 23.0259 5.62885 23.0184 5.31662 22.9296C5.00438 22.8409 4.72003 22.6737 4.49057 22.4441L0.558083 18.5117C0.328485 18.2822 0.161361 17.9978 0.0725877 17.6856C-0.0161859 17.3734 -0.023662 17.0436 0.0508696 16.7277C0.125401 16.4118 0.279466 16.1201 0.498429 15.8805C0.717392 15.6409 0.993983 15.4612 1.30193 15.3586L4.53881 14.2796C4.19618 13.1751 4.16182 11.998 4.43945 10.8754C4.71708 9.7528 5.29614 8.72739 6.11409 7.90992L7.91024 6.11504C8.72747 5.29755 9.75244 4.71876 10.8745 4.44115C11.9966 4.16353 13.1732 4.19763 14.2774 4.53976L15.3563 1.30288C15.4588 0.994837 15.6384 0.718116 15.878 0.499012C16.1175 0.279909 16.4091 0.125699 16.7251 0.0510365C17.041 -0.0236264 17.3708 -0.016263 17.6831 0.0724271C17.9954 0.161117 18.2799 0.328188 18.5094 0.557766V0.560305ZM5.77136 16.5429L3.07904 17.4403L5.55938 19.9219L6.45682 17.2283L5.77136 16.5429ZM17.4406 3.08126L16.5432 5.77358L17.2286 6.45904L19.921 5.5616L17.4406 3.08126Z" fill="#F35151"/>
</svg>
