<svg width="50" height="64" viewBox="0 0 50 64" fill="none" xmlns="http://www.w3.org/2000/svg">
<ellipse cx="29.2917" cy="41.6375" rx="11.5625" ry="16.1875" fill="#FFCE51"/>
<path d="M47.73 33.4666C42.8892 20.8866 25.6533 20.2083 29.8158 1.92414C30.1242 0.567477 28.675 -0.480856 27.5033 0.228311C16.3108 6.82664 8.26333 20.0541 15.0158 37.3825C15.5708 38.8008 13.9058 40.1266 12.7033 39.2016C7.1225 34.9775 6.53667 28.9033 7.03 24.5558C7.215 22.9525 5.11833 22.1816 4.22417 23.5075C2.1275 26.7141 0 31.8941 0 39.695C1.17167 56.9616 15.7558 62.265 20.9975 62.9433C28.49 63.8991 36.5992 62.5117 42.4267 57.1775C48.84 51.2267 51.1833 41.73 47.73 33.4666ZM19.1167 48.9758C23.5567 47.8966 25.8383 44.69 26.455 41.8533C27.4725 37.4441 23.495 33.1275 26.1775 26.1591C27.195 31.925 36.26 35.5325 36.26 41.8225C36.5067 49.6233 28.0583 56.3141 19.1167 48.9758Z" fill="#F35151"/>
</svg>
