<svg xmlns="http://www.w3.org/2000/svg" width="20" height="20" viewBox="0 0 20 20" fill="none">
<g opacity="0.8">
<path d="M9.16667 3.91835C9.1665 3.80227 9.13196 3.68885 9.06739 3.59239C9.00282 3.49594 8.91113 3.42077 8.80388 3.37637C8.69664 3.33197 8.57864 3.32034 8.46479 3.34294C8.35094 3.36554 8.24633 3.42135 8.16417 3.50335L5.34417 6.32251C5.23534 6.43199 5.10587 6.51879 4.96325 6.57787C4.82063 6.63694 4.66771 6.66713 4.51334 6.66668H2.50001C2.27899 6.66668 2.06703 6.75448 1.91075 6.91076C1.75447 7.06704 1.66667 7.279 1.66667 7.50001V12.5C1.66667 12.721 1.75447 12.933 1.91075 13.0893C2.06703 13.2455 2.27899 13.3333 2.50001 13.3333H4.51334C4.66771 13.3329 4.82063 13.3631 4.96325 13.4222C5.10587 13.4812 5.23534 13.568 5.34417 13.6775L8.16334 16.4975C8.2455 16.5798 8.35026 16.6359 8.46433 16.6587C8.5784 16.6814 8.69666 16.6698 8.80411 16.6252C8.91156 16.5807 9.00338 16.5053 9.06792 16.4085C9.13246 16.3117 9.16683 16.198 9.16667 16.0817V3.91835Z" stroke="white" stroke-width="1.25" stroke-linecap="round" stroke-linejoin="round"/>
<path d="M13.3333 7.5C13.8743 8.22123 14.1667 9.09846 14.1667 10C14.1667 10.9015 13.8743 11.7788 13.3333 12.5" stroke="white" stroke-width="1.25" stroke-linecap="round" stroke-linejoin="round"/>
<path d="M16.1367 15.3033C16.8331 14.6069 17.3856 13.7801 17.7625 12.8701C18.1394 11.9602 18.3334 10.9849 18.3334 9.99999C18.3334 9.01507 18.1394 8.03979 17.7625 7.12984C17.3856 6.21989 16.8331 5.3931 16.1367 4.69666" stroke="white" stroke-width="1.25" stroke-linecap="round" stroke-linejoin="round"/>
</g>
</svg>
