<svg width="393" height="104" viewBox="0 0 393 104" fill="none" xmlns="http://www.w3.org/2000/svg">
<rect width="393" height="100" transform="translate(0 4)" fill="#FAFAFA"/>
<rect x="168.5" y="2" width="56" height="56" rx="28" fill="#F35151"/>
<rect x="168.5" y="2" width="56" height="56" rx="28" stroke="#FAFAFA" stroke-width="4"/>
<path d="M196.5 39C198.497 38.9997 200.437 38.3353 202.015 37.1114C203.593 35.8874 204.719 34.1735 205.215 32.2394C205.712 30.3053 205.552 28.2608 204.759 26.428C203.967 24.5951 202.587 23.0778 200.838 22.1151C199.088 21.1523 197.068 20.7987 195.096 21.11C193.123 21.4213 191.31 22.3798 189.942 23.8345C188.574 25.2893 187.729 27.1576 187.539 29.1455C187.35 31.1334 187.827 33.1279 188.895 34.815L187.5 39L191.685 37.605C193.124 38.5187 194.795 39.0026 196.5 39Z" fill="#FAFAFA" stroke="#FAFAFA" stroke-width="2" stroke-linecap="round" stroke-linejoin="round"/>
</svg>
