<svg xmlns="http://www.w3.org/2000/svg" width="28" height="28" viewBox="0 0 28 28" fill="none">
  <path fill-rule="evenodd" clip-rule="evenodd" d="M23.5641 13.9335C23.5641 13.2049 23.4987 12.5044 23.3773 11.8318H13.7001V15.8064H19.2299C18.9917 17.0908 18.2678 18.179 17.1796 18.9076V21.4857H20.5003C22.4432 19.6969 23.5641 17.0627 23.5641 13.9335Z" fill="#4285F4"/>
  <path fill-rule="evenodd" clip-rule="evenodd" d="M13.6999 23.975C16.4742 23.975 18.8001 23.055 20.5001 21.4857L17.1794 18.9076C16.2594 19.5241 15.0824 19.8884 13.6999 19.8884C11.0238 19.8884 8.7586 18.0809 7.95061 15.6523H4.51782V18.3144C6.20853 21.6725 9.68335 23.975 13.6999 23.975Z" fill="#34A853"/>
  <path fill-rule="evenodd" clip-rule="evenodd" d="M7.9506 15.6523C7.7451 15.0358 7.62834 14.3773 7.62834 13.7C7.62834 13.0228 7.7451 12.3643 7.9506 11.7478V9.08563H4.51781C3.82192 10.4728 3.42493 12.042 3.42493 13.7C3.42493 15.3581 3.82192 16.9273 4.51781 18.3145L7.9506 15.6523Z" fill="#FBBC05"/>
  <path fill-rule="evenodd" clip-rule="evenodd" d="M13.6999 7.51167C15.2085 7.51167 16.5629 8.03009 17.6278 9.04825L20.5749 6.10119C18.7954 4.44318 16.4695 3.42502 13.6999 3.42502C9.68335 3.42502 6.20853 5.72755 4.51782 9.08561L7.95061 11.7478C8.7586 9.31914 11.0238 7.51167 13.6999 7.51167Z" fill="#EA4335"/>
</svg>