<svg width="28" height="28" viewBox="0 0 28 28" fill="none" xmlns="http://www.w3.org/2000/svg">
<path d="M4.66663 22.1666V11.6666C4.66663 11.2972 4.74946 10.9472 4.91513 10.6166C5.08079 10.2861 5.30907 10.0139 5.59996 9.79998L12.6 4.54998C13.0083 4.23887 13.475 4.08331 14 4.08331C14.525 4.08331 14.9916 4.23887 15.4 4.54998L22.4 9.79998C22.6916 10.0139 22.9203 10.2861 23.086 10.6166C23.2516 10.9472 23.3341 11.2972 23.3333 11.6666V22.1666C23.3333 22.8083 23.1046 23.3578 22.6473 23.8151C22.19 24.2725 21.6409 24.5008 21 24.5H17.5C17.1694 24.5 16.8925 24.388 16.6693 24.164C16.4461 23.94 16.3341 23.6631 16.3333 23.3333V17.5C16.3333 17.1694 16.2213 16.8925 15.9973 16.6693C15.7733 16.4461 15.4964 16.3341 15.1666 16.3333H12.8333C12.5027 16.3333 12.2258 16.4453 12.0026 16.6693C11.7794 16.8933 11.6674 17.1702 11.6666 17.5V23.3333C11.6666 23.6639 11.5546 23.9411 11.3306 24.1651C11.1066 24.3891 10.8297 24.5008 10.5 24.5H6.99996C6.35829 24.5 5.80918 24.2717 5.35263 23.8151C4.89607 23.3586 4.6674 22.8091 4.66663 22.1666Z" fill="#545052"/>
</svg>
