<svg width="14" height="14" viewBox="0 0 14 14" fill="none" xmlns="http://www.w3.org/2000/svg">
<path fill-rule="evenodd" clip-rule="evenodd" d="M11.2666 0.341022L13.6603 2.73448C13.8001 2.87414 13.9018 3.04721 13.9558 3.23724C14.0099 3.42727 14.0144 3.62797 13.969 3.82026C13.9237 4.01254 13.8299 4.19004 13.6966 4.33589C13.5633 4.48174 13.395 4.5911 13.2075 4.65357L11.2372 5.31027C11.4455 5.98228 11.4663 6.69841 11.2973 7.38136C11.1283 8.0643 10.776 8.68814 10.2784 9.18554L9.18507 10.278C8.68771 10.7757 8.06385 11.1281 7.38083 11.2972C6.69781 11.4663 5.98158 11.4457 5.30943 11.2375L4.65267 13.2076C4.59019 13.395 4.48082 13.5634 4.33496 13.6966C4.18909 13.8299 4.01158 13.9237 3.81927 13.969C3.62697 14.0144 3.42625 14.0099 3.2362 13.9558C3.04615 13.9018 2.87306 13.8001 2.73339 13.6603L0.339703 11.2669C0.199947 11.1272 0.0982199 10.9541 0.0441838 10.7641C-0.00985227 10.5741 -0.0144029 10.3734 0.0309641 10.1811C0.0763312 9.98881 0.17011 9.81131 0.303392 9.66546C0.436673 9.51961 0.605033 9.41026 0.792479 9.34778L2.76275 8.69108C2.5542 8.01885 2.53328 7.30242 2.70227 6.61917C2.87127 5.93591 3.22374 5.31181 3.72162 4.81427L4.81493 3.72184C5.31237 3.22428 5.93627 2.87201 6.61928 2.70305C7.3023 2.53408 8.01849 2.55483 8.69057 2.76307L9.34733 0.792982C9.40972 0.605494 9.51902 0.437072 9.66485 0.303717C9.81067 0.170363 9.98817 0.0765053 10.1805 0.0310627C10.3728 -0.0143799 10.5736 -0.00989824 10.7636 0.0440818C10.9537 0.0980619 11.1269 0.199747 11.2666 0.339477V0.341022ZM3.513 10.0686L1.8742 10.6148L3.38397 12.1252L3.93024 10.4858L3.513 10.0686ZM10.616 1.87537L10.0698 3.51401L10.487 3.93121L12.1258 3.38499L10.616 1.87537Z" fill="#545052"/>
</svg>
